<svg width="50" height="50" viewBox="0 0 50 50" fill="none" xmlns="http://www.w3.org/2000/svg">
<path d="M0 25C0 11.1929 11.1929 0 25 0C38.8071 0 50 11.1929 50 25C50 38.8071 38.8071 50 25 50C11.1929 50 0 38.8071 0 25Z" fill="#021533"/>
<path d="M32 30H34C34.6 30 35 29.6 35 29V26C35 25.1 34.3 24.3 33.5 24.1C31.7 23.6 29 23 29 23C29 23 27.7 21.6 26.8 20.7C26.3 20.3 25.7 20 25 20H18C17.4 20 16.9 20.4 16.6 20.9L15.2 23.8C15.0676 24.1862 15 24.5917 15 25V29C15 29.6 15.4 30 16 30H18" stroke="white" stroke-width="2" stroke-linecap="round" stroke-linejoin="round"/>
<path d="M20 32C21.1046 32 22 31.1046 22 30C22 28.8954 21.1046 28 20 28C18.8954 28 18 28.8954 18 30C18 31.1046 18.8954 32 20 32Z" stroke="white" stroke-width="2" stroke-linecap="round" stroke-linejoin="round"/>
<path d="M22 30H28" stroke="white" stroke-width="2" stroke-linecap="round" stroke-linejoin="round"/>
<path d="M30 32C31.1046 32 32 31.1046 32 30C32 28.8954 31.1046 28 30 28C28.8954 28 28 28.8954 28 30C28 31.1046 28.8954 32 30 32Z" stroke="white" stroke-width="2" stroke-linecap="round" stroke-linejoin="round"/>
</svg>
